<mxfile host="65bd71144e">
    <diagram id="pOzOL3Exqh_pL-dxT3BV" name="Page-1">
        <mxGraphModel dx="1188" dy="796" grid="1" gridSize="10" guides="1" tooltips="1" connect="1" arrows="1" fold="1" page="1" pageScale="1" pageWidth="850" pageHeight="1100" background="#ffffff" math="0" shadow="1">
            <root>
                <mxCell id="0"/>
                <mxCell id="1" parent="0"/>
                <mxCell id="3" value="max" style="swimlane;horizontal=0;whiteSpace=wrap;html=1;startSize=23;fontFamily=Times New Roman;dashed=1;gradientColor=none;swimlaneFillColor=none;opacity=60;rounded=1;strokeColor=#000000;swimlaneLine=1;fontSize=14;" parent="1" vertex="1">
                    <mxGeometry x="100" y="40" width="650" height="80" as="geometry"/>
                </mxCell>
                <mxCell id="8" value="A" style="ellipse;whiteSpace=wrap;html=1;aspect=fixed;fontFamily=Times New Roman;rounded=1;strokeColor=#000000;fontSize=14;" parent="3" vertex="1">
                    <mxGeometry x="320" y="20" width="40" height="40" as="geometry"/>
                </mxCell>
                <mxCell id="50" value="6" style="text;html=1;strokeColor=#000000;fillColor=none;align=center;verticalAlign=middle;whiteSpace=wrap;rounded=1;dashed=1;fontFamily=Times New Roman;opacity=30;fontColor=#000000;fontSize=14;fontStyle=1" parent="3" vertex="1">
                    <mxGeometry x="340" y="25" width="60" height="30" as="geometry"/>
                </mxCell>
                <mxCell id="4" value="min" style="swimlane;horizontal=0;whiteSpace=wrap;html=1;startSize=23;fontFamily=Times New Roman;fillColor=default;dashed=1;opacity=60;rounded=1;strokeColor=#000000;fontSize=14;" parent="1" vertex="1">
                    <mxGeometry x="100" y="120" width="650" height="80" as="geometry"/>
                </mxCell>
                <mxCell id="10" value="B" style="ellipse;whiteSpace=wrap;html=1;aspect=fixed;fontFamily=Times New Roman;rounded=1;strokeColor=#000000;fontSize=14;" parent="4" vertex="1">
                    <mxGeometry x="160" y="20" width="40" height="40" as="geometry"/>
                </mxCell>
                <mxCell id="11" value="C" style="ellipse;whiteSpace=wrap;html=1;aspect=fixed;fontFamily=Times New Roman;rounded=1;strokeColor=#000000;fontSize=14;" parent="4" vertex="1">
                    <mxGeometry x="480" y="20" width="40" height="40" as="geometry"/>
                </mxCell>
                <mxCell id="48" value="6" style="text;html=1;strokeColor=none;fillColor=none;align=center;verticalAlign=middle;whiteSpace=wrap;rounded=1;dashed=1;fontFamily=Times New Roman;opacity=30;fontColor=#000000;fontSize=14;fontStyle=1" parent="4" vertex="1">
                    <mxGeometry x="180" y="25" width="60" height="30" as="geometry"/>
                </mxCell>
                <mxCell id="49" value="1" style="text;html=1;strokeColor=none;fillColor=none;align=center;verticalAlign=middle;whiteSpace=wrap;rounded=1;dashed=1;fontFamily=Times New Roman;opacity=30;fontColor=#000000;fontSize=14;fontStyle=1" parent="4" vertex="1">
                    <mxGeometry x="500" y="25" width="60" height="30" as="geometry"/>
                </mxCell>
                <mxCell id="5" value="max" style="swimlane;horizontal=0;whiteSpace=wrap;html=1;fontFamily=Times New Roman;dashed=1;opacity=60;rounded=1;strokeColor=#000000;fontSize=14;" parent="1" vertex="1">
                    <mxGeometry x="100" y="200" width="650" height="80" as="geometry"/>
                </mxCell>
                <mxCell id="12" value="D" style="ellipse;whiteSpace=wrap;html=1;aspect=fixed;fontFamily=Times New Roman;rounded=1;strokeColor=#000000;fontSize=14;" parent="5" vertex="1">
                    <mxGeometry x="80" y="20" width="40" height="40" as="geometry"/>
                </mxCell>
                <mxCell id="13" value="E" style="ellipse;whiteSpace=wrap;html=1;aspect=fixed;fontFamily=Times New Roman;rounded=1;strokeColor=#000000;fontSize=14;" parent="5" vertex="1">
                    <mxGeometry x="240" y="20" width="40" height="40" as="geometry"/>
                </mxCell>
                <mxCell id="17" value="F" style="ellipse;whiteSpace=wrap;html=1;aspect=fixed;fontFamily=Times New Roman;rounded=1;strokeColor=#000000;fontSize=14;" parent="5" vertex="1">
                    <mxGeometry x="400" y="20" width="40" height="40" as="geometry"/>
                </mxCell>
                <mxCell id="18" value="G" style="ellipse;whiteSpace=wrap;html=1;aspect=fixed;fontFamily=Times New Roman;rounded=1;strokeColor=#000000;fontSize=14;" parent="5" vertex="1">
                    <mxGeometry x="560" y="20" width="40" height="40" as="geometry"/>
                </mxCell>
                <mxCell id="43" value="6" style="text;html=1;strokeColor=none;fillColor=none;align=center;verticalAlign=middle;whiteSpace=wrap;rounded=1;dashed=1;fontFamily=Times New Roman;opacity=30;fontColor=#000000;fontSize=14;fontStyle=1" parent="5" vertex="1">
                    <mxGeometry x="100" y="25" width="60" height="30" as="geometry"/>
                </mxCell>
                <mxCell id="44" value="9" style="text;html=1;strokeColor=none;fillColor=none;align=center;verticalAlign=middle;whiteSpace=wrap;rounded=1;dashed=1;fontFamily=Times New Roman;opacity=30;fontColor=#000000;fontSize=14;fontStyle=1" parent="5" vertex="1">
                    <mxGeometry x="265" y="25" width="60" height="30" as="geometry"/>
                </mxCell>
                <mxCell id="45" value="1" style="text;html=1;strokeColor=none;fillColor=none;align=center;verticalAlign=middle;whiteSpace=wrap;rounded=1;dashed=1;fontFamily=Times New Roman;opacity=30;fontColor=#000000;fontSize=14;fontStyle=1" parent="5" vertex="1">
                    <mxGeometry x="420" y="25" width="60" height="30" as="geometry"/>
                </mxCell>
                <mxCell id="47" value="7" style="text;html=1;strokeColor=none;fillColor=none;align=center;verticalAlign=middle;whiteSpace=wrap;rounded=1;dashed=1;fontFamily=Times New Roman;opacity=30;fontColor=#000000;fontSize=14;fontStyle=1" parent="5" vertex="1">
                    <mxGeometry x="580" y="25" width="60" height="30" as="geometry"/>
                </mxCell>
                <mxCell id="7" value="min" style="swimlane;horizontal=0;whiteSpace=wrap;html=1;fontFamily=Times New Roman;dashed=1;opacity=60;rounded=1;strokeColor=#000000;fontSize=14;" parent="1" vertex="1">
                    <mxGeometry x="100" y="280" width="650" height="80" as="geometry"/>
                </mxCell>
                <mxCell id="19" value="5" style="ellipse;whiteSpace=wrap;html=1;aspect=fixed;fontFamily=Times New Roman;rounded=1;strokeColor=#000000;fontSize=14;" parent="7" vertex="1">
                    <mxGeometry x="40" y="20" width="40" height="40" as="geometry"/>
                </mxCell>
                <mxCell id="20" value="6" style="ellipse;whiteSpace=wrap;html=1;aspect=fixed;fontFamily=Times New Roman;rounded=1;strokeColor=#000000;fontSize=14;" parent="7" vertex="1">
                    <mxGeometry x="120" y="20" width="40" height="40" as="geometry"/>
                </mxCell>
                <mxCell id="21" value="5" style="ellipse;whiteSpace=wrap;html=1;aspect=fixed;fontFamily=Times New Roman;rounded=1;strokeColor=#000000;fontSize=14;" parent="7" vertex="1">
                    <mxGeometry x="200" y="20" width="40" height="40" as="geometry"/>
                </mxCell>
                <mxCell id="22" value="9" style="ellipse;whiteSpace=wrap;html=1;aspect=fixed;fontFamily=Times New Roman;rounded=1;strokeColor=#000000;fontSize=14;" parent="7" vertex="1">
                    <mxGeometry x="280" y="20" width="40" height="40" as="geometry"/>
                </mxCell>
                <mxCell id="23" value="0" style="ellipse;whiteSpace=wrap;html=1;aspect=fixed;fontFamily=Times New Roman;rounded=1;strokeColor=#000000;fontSize=14;" parent="7" vertex="1">
                    <mxGeometry x="360" y="20" width="40" height="40" as="geometry"/>
                </mxCell>
                <mxCell id="24" value="1" style="ellipse;whiteSpace=wrap;html=1;aspect=fixed;fontFamily=Times New Roman;rounded=1;strokeColor=#000000;fontSize=14;" parent="7" vertex="1">
                    <mxGeometry x="440" y="20" width="40" height="40" as="geometry"/>
                </mxCell>
                <mxCell id="25" value="5" style="ellipse;whiteSpace=wrap;html=1;aspect=fixed;fontFamily=Times New Roman;rounded=1;strokeColor=#000000;fontSize=14;" parent="7" vertex="1">
                    <mxGeometry x="600" y="20" width="40" height="40" as="geometry"/>
                </mxCell>
                <mxCell id="28" value="7" style="ellipse;whiteSpace=wrap;html=1;aspect=fixed;fontFamily=Times New Roman;rounded=1;strokeColor=#000000;fontSize=14;" parent="7" vertex="1">
                    <mxGeometry x="520" y="20" width="40" height="40" as="geometry"/>
                </mxCell>
                <mxCell id="29" value="" style="endArrow=none;html=1;fontFamily=Times New Roman;entryX=0;entryY=1;entryDx=0;entryDy=0;exitX=1;exitY=0;exitDx=0;exitDy=0;rounded=1;strokeColor=#000000;fontSize=14;" parent="1" source="10" target="8" edge="1">
                    <mxGeometry width="50" height="50" relative="1" as="geometry">
                        <mxPoint x="400" y="430" as="sourcePoint"/>
                        <mxPoint x="450" y="380" as="targetPoint"/>
                    </mxGeometry>
                </mxCell>
                <mxCell id="30" value="" style="endArrow=none;html=1;fontFamily=Times New Roman;entryX=1;entryY=1;entryDx=0;entryDy=0;exitX=0;exitY=0;exitDx=0;exitDy=0;rounded=1;strokeColor=#000000;fontSize=14;" parent="1" source="11" target="8" edge="1">
                    <mxGeometry width="50" height="50" relative="1" as="geometry">
                        <mxPoint x="304.14213562373106" y="155.85786437626894" as="sourcePoint"/>
                        <mxPoint x="420.85786437626894" y="104.14213562373106" as="targetPoint"/>
                    </mxGeometry>
                </mxCell>
                <mxCell id="31" style="edgeStyle=none;html=1;exitX=0;exitY=1;exitDx=0;exitDy=0;fontFamily=Times New Roman;endArrow=none;endFill=0;rounded=1;strokeColor=#000000;fontSize=14;" parent="1" source="10" target="12" edge="1">
                    <mxGeometry relative="1" as="geometry"/>
                </mxCell>
                <mxCell id="32" style="edgeStyle=none;html=1;exitX=1;exitY=1;exitDx=0;exitDy=0;fontFamily=Times New Roman;endArrow=none;endFill=0;rounded=1;strokeColor=#000000;fontSize=14;" parent="1" source="10" target="13" edge="1">
                    <mxGeometry relative="1" as="geometry"/>
                </mxCell>
                <mxCell id="33" style="edgeStyle=none;html=1;exitX=0;exitY=1;exitDx=0;exitDy=0;entryX=1;entryY=0;entryDx=0;entryDy=0;fontFamily=Times New Roman;endArrow=none;endFill=0;rounded=1;strokeColor=#000000;fontSize=14;" parent="1" source="11" target="17" edge="1">
                    <mxGeometry relative="1" as="geometry"/>
                </mxCell>
                <mxCell id="34" style="edgeStyle=none;html=1;exitX=1;exitY=1;exitDx=0;exitDy=0;entryX=0;entryY=0;entryDx=0;entryDy=0;fontFamily=Times New Roman;endArrow=none;endFill=0;rounded=1;strokeColor=#000000;fontSize=14;" parent="1" source="11" target="18" edge="1">
                    <mxGeometry relative="1" as="geometry"/>
                </mxCell>
                <mxCell id="35" style="edgeStyle=none;html=1;exitX=0;exitY=0;exitDx=0;exitDy=0;entryX=0.5;entryY=1;entryDx=0;entryDy=0;fontFamily=Times New Roman;endArrow=none;endFill=0;rounded=1;strokeColor=#000000;fontSize=14;" parent="1" source="24" target="17" edge="1">
                    <mxGeometry relative="1" as="geometry"/>
                </mxCell>
                <mxCell id="36" style="edgeStyle=none;html=1;exitX=1;exitY=0;exitDx=0;exitDy=0;fontFamily=Times New Roman;endArrow=none;endFill=0;rounded=1;strokeColor=#000000;fontSize=14;" parent="1" source="23" edge="1">
                    <mxGeometry relative="1" as="geometry">
                        <mxPoint x="520" y="260" as="targetPoint"/>
                    </mxGeometry>
                </mxCell>
                <mxCell id="37" style="edgeStyle=none;html=1;exitX=0;exitY=0;exitDx=0;exitDy=0;entryX=0.5;entryY=1;entryDx=0;entryDy=0;fontFamily=Times New Roman;endArrow=none;endFill=0;rounded=1;strokeColor=#000000;fontSize=14;" parent="1" source="22" target="13" edge="1">
                    <mxGeometry relative="1" as="geometry"/>
                </mxCell>
                <mxCell id="38" style="edgeStyle=none;html=1;exitX=1;exitY=0;exitDx=0;exitDy=0;entryX=0.5;entryY=1;entryDx=0;entryDy=0;fontFamily=Times New Roman;endArrow=none;endFill=0;rounded=1;strokeColor=#000000;fontSize=14;" parent="1" source="21" target="13" edge="1">
                    <mxGeometry relative="1" as="geometry"/>
                </mxCell>
                <mxCell id="39" style="edgeStyle=none;html=1;exitX=0.25;exitY=0.146;exitDx=0;exitDy=0;entryX=0.5;entryY=1;entryDx=0;entryDy=0;fontFamily=Times New Roman;endArrow=none;endFill=0;exitPerimeter=0;rounded=1;strokeColor=#000000;fontSize=14;" parent="1" source="20" target="12" edge="1">
                    <mxGeometry relative="1" as="geometry"/>
                </mxCell>
                <mxCell id="40" style="edgeStyle=none;html=1;exitX=1;exitY=0;exitDx=0;exitDy=0;fontFamily=Times New Roman;endArrow=none;endFill=0;rounded=1;strokeColor=#000000;fontSize=14;" parent="1" source="19" edge="1">
                    <mxGeometry relative="1" as="geometry">
                        <mxPoint x="200" y="260" as="targetPoint"/>
                    </mxGeometry>
                </mxCell>
                <mxCell id="41" style="edgeStyle=none;html=1;exitX=1;exitY=0;exitDx=0;exitDy=0;entryX=0.5;entryY=1;entryDx=0;entryDy=0;fontFamily=Times New Roman;endArrow=none;endFill=0;rounded=1;strokeColor=#000000;fontSize=14;" parent="1" source="28" target="18" edge="1">
                    <mxGeometry relative="1" as="geometry"/>
                </mxCell>
                <mxCell id="42" style="edgeStyle=none;html=1;exitX=0;exitY=0;exitDx=0;exitDy=0;entryX=0.5;entryY=1;entryDx=0;entryDy=0;fontFamily=Times New Roman;endArrow=none;endFill=0;rounded=1;strokeColor=#000000;fontSize=14;" parent="1" source="25" target="18" edge="1">
                    <mxGeometry relative="1" as="geometry"/>
                </mxCell>
            </root>
        </mxGraphModel>
    </diagram>
</mxfile>